<?xml version="1.0" encoding="UTF-8"?>
<svg xmlns="http://www.w3.org/2000/svg" xmlns:xlink="http://www.w3.org/1999/xlink" width="24px" height="24px" viewBox="0 0 24 24" version="1.1">
<g id="surface1">
<path style=" stroke:none;fill-rule:nonzero;fill:rgb(9.411765%,12.156863%,14.509804%);fill-opacity:1;" d="M 20.316406 4.15625 C 18.789062 3.453125 17.148438 2.9375 15.433594 2.640625 C 15.402344 2.632812 15.371094 2.648438 15.351562 2.675781 C 15.140625 3.054688 14.910156 3.542969 14.746094 3.925781 C 12.902344 3.652344 11.066406 3.652344 9.257812 3.925781 C 9.09375 3.535156 8.851562 3.054688 8.640625 2.675781 C 8.625 2.648438 8.59375 2.636719 8.5625 2.640625 C 6.847656 2.9375 5.207031 3.453125 3.675781 4.15625 C 3.664062 4.160156 3.652344 4.171875 3.644531 4.183594 C 0.535156 8.832031 -0.320312 13.367188 0.0976562 17.84375 C 0.101562 17.867188 0.113281 17.886719 0.128906 17.898438 C 2.183594 19.40625 4.171875 20.324219 6.125 20.929688 C 6.15625 20.9375 6.1875 20.925781 6.207031 20.902344 C 6.667969 20.269531 7.082031 19.605469 7.433594 18.90625 C 7.453125 18.867188 7.433594 18.816406 7.390625 18.800781 C 6.738281 18.554688 6.117188 18.253906 5.519531 17.910156 C 5.472656 17.882812 5.46875 17.8125 5.511719 17.78125 C 5.636719 17.6875 5.765625 17.589844 5.882812 17.492188 C 5.90625 17.472656 5.9375 17.46875 5.960938 17.480469 C 9.890625 19.273438 14.140625 19.273438 18.023438 17.480469 C 18.046875 17.46875 18.078125 17.472656 18.101562 17.488281 C 18.222656 17.589844 18.347656 17.6875 18.472656 17.78125 C 18.519531 17.8125 18.515625 17.882812 18.46875 17.910156 C 17.871094 18.257812 17.25 18.554688 16.59375 18.800781 C 16.550781 18.816406 16.53125 18.867188 16.554688 18.90625 C 16.914062 19.605469 17.324219 20.269531 17.777344 20.902344 C 17.796875 20.925781 17.832031 20.9375 17.863281 20.929688 C 19.824219 20.324219 21.8125 19.40625 23.867188 17.898438 C 23.882812 17.886719 23.894531 17.867188 23.898438 17.84375 C 24.398438 12.667969 23.058594 8.171875 20.347656 4.183594 C 20.339844 4.171875 20.332031 4.160156 20.316406 4.15625 Z M 8.019531 15.117188 C 6.835938 15.117188 5.863281 14.03125 5.863281 12.699219 C 5.863281 11.363281 6.820312 10.277344 8.019531 10.277344 C 9.230469 10.277344 10.195312 11.375 10.175781 12.699219 C 10.175781 14.03125 9.222656 15.117188 8.019531 15.117188 Z M 15.996094 15.117188 C 14.8125 15.117188 13.839844 14.03125 13.839844 12.699219 C 13.839844 11.363281 14.792969 10.277344 15.996094 10.277344 C 17.207031 10.277344 18.171875 11.375 18.152344 12.699219 C 18.152344 14.03125 17.207031 15.117188 15.996094 15.117188 Z M 15.996094 15.117188 "/>
</g>
</svg>
